<svg xmlns="http://www.w3.org/2000/svg" version="1.1" xmlns:xlink="http://www.w3.org/1999/xlink" xmlns:svgjs="http://svgjs.dev/svgjs" width="1440" height="560" preserveAspectRatio="none" viewBox="0 0 1440 560"><g mask="url(&quot;#SvgjsMask1017&quot;)" fill="none"><rect width="1440" height="560" x="0" y="0" fill="rgba(0, 102, 204, 0.05)"></rect><path d="M0,602.893C112.51,614.537,225.422,557.303,309.609,481.761C388.034,411.389,414.074,303.993,445.267,203.347C472.929,114.092,504.09,21.309,480.321,-69.06C457.585,-155.504,374.321,-206.213,319.066,-276.472C260.353,-351.127,232.59,-457.464,145.343,-494.994C56.21,-533.335,-43.628,-491.174,-139.041,-473.531C-245.599,-453.827,-371.709,-465.401,-445.227,-385.791C-518.867,-306.049,-515.826,-181.466,-508.783,-73.152C-502.637,21.355,-449.044,100.976,-408.023,186.338C-367.892,269.847,-335.825,355.483,-270.992,421.672C-193.38,500.907,-110.325,591.475,0,602.893" fill="rgba(0, 84, 167, 0.05)"></path><path d="M1440 1029.3C1527.966 1020.567 1607.883 984.658 1683.704 939.211 1761.647 892.491 1847.318 845.914 1884.376 762.94 1921.34 680.176 1900.252 585.198 1881.412 496.53499999999997 1863.593 412.68 1837.633 328.78499999999997 1778.859 266.377 1721.3229999999999 205.284 1638.065 182.78300000000002 1559.119 154.31900000000002 1475.116 124.03199999999998 1392.698 91.91699999999997 1303.454 94.969 1194.923 98.68 1064.462 90.91000000000003 994.117 173.64 923.714 256.439 981.952 384.342 965.992 491.848 949.929 600.045 859.979 704.8009999999999 900.158 806.538 940.288 908.153 1062.088 949.222 1163.08 990.896 1251.005 1027.1779999999999 1345.348 1038.6970000000001 1440 1029.3" fill="rgba(0, 120, 241, 0.05)"></path></g><defs><mask id="SvgjsMask1017"><rect width="1440" height="560" fill="#ffffff"></rect></mask></defs></svg>