<svg xmlns="http://www.w3.org/2000/svg" version="1.1" xmlns:xlink="http://www.w3.org/1999/xlink" xmlns:svgjs="http://svgjs.dev/svgjs" width="1440" height="560" preserveAspectRatio="none" viewBox="0 0 1440 560"><g mask="url(&quot;#SvgjsMask1038&quot;)" fill="none"><rect width="1440" height="560" x="0" y="0" fill="rgba(255, 255, 255, 0.3)"></rect><path d="M665 393L870 188" stroke-width="6" stroke="url(&quot;#SvgjsLinearGradient1039&quot;)" stroke-linecap="round" class="BottomLeft"></path><path d="M788 240L1103 -75" stroke-width="10" stroke="url(&quot;#SvgjsLinearGradient1039&quot;)" stroke-linecap="round" class="BottomLeft"></path><path d="M12 348L-293 653" stroke-width="6" stroke="url(&quot;#SvgjsLinearGradient1040&quot;)" stroke-linecap="round" class="TopRight"></path><path d="M596 483L799 280" stroke-width="10" stroke="url(&quot;#SvgjsLinearGradient1040&quot;)" stroke-linecap="round" class="TopRight"></path><path d="M286 542L138 690" stroke-width="6" stroke="url(&quot;#SvgjsLinearGradient1040&quot;)" stroke-linecap="round" class="TopRight"></path><path d="M979 271L1240 10" stroke-width="10" stroke="url(&quot;#SvgjsLinearGradient1039&quot;)" stroke-linecap="round" class="BottomLeft"></path><path d="M15 388L-360 763" stroke-width="10" stroke="url(&quot;#SvgjsLinearGradient1039&quot;)" stroke-linecap="round" class="BottomLeft"></path><path d="M331 220L670 -119" stroke-width="8" stroke="url(&quot;#SvgjsLinearGradient1039&quot;)" stroke-linecap="round" class="BottomLeft"></path><path d="M159 241L-48 448" stroke-width="6" stroke="url(&quot;#SvgjsLinearGradient1040&quot;)" stroke-linecap="round" class="TopRight"></path><path d="M403 338L89 652" stroke-width="8" stroke="url(&quot;#SvgjsLinearGradient1040&quot;)" stroke-linecap="round" class="TopRight"></path><path d="M902 114L681 335" stroke-width="8" stroke="url(&quot;#SvgjsLinearGradient1040&quot;)" stroke-linecap="round" class="TopRight"></path><path d="M253 37L91 199" stroke-width="6" stroke="url(&quot;#SvgjsLinearGradient1040&quot;)" stroke-linecap="round" class="TopRight"></path><path d="M1017 180L1368 -171" stroke-width="6" stroke="url(&quot;#SvgjsLinearGradient1039&quot;)" stroke-linecap="round" class="BottomLeft"></path><path d="M332 523L611 244" stroke-width="10" stroke="url(&quot;#SvgjsLinearGradient1040&quot;)" stroke-linecap="round" class="TopRight"></path><path d="M813 326L439 700" stroke-width="8" stroke="url(&quot;#SvgjsLinearGradient1040&quot;)" stroke-linecap="round" class="TopRight"></path><path d="M510 351L803 58" stroke-width="8" stroke="url(&quot;#SvgjsLinearGradient1039&quot;)" stroke-linecap="round" class="BottomLeft"></path><path d="M599 15L820 -206" stroke-width="10" stroke="url(&quot;#SvgjsLinearGradient1039&quot;)" stroke-linecap="round" class="BottomLeft"></path><path d="M779 418L454 743" stroke-width="10" stroke="url(&quot;#SvgjsLinearGradient1039&quot;)" stroke-linecap="round" class="BottomLeft"></path><path d="M607 98L952 -247" stroke-width="8" stroke="url(&quot;#SvgjsLinearGradient1039&quot;)" stroke-linecap="round" class="BottomLeft"></path><path d="M210 517L-108 835" stroke-width="10" stroke="url(&quot;#SvgjsLinearGradient1039&quot;)" stroke-linecap="round" class="BottomLeft"></path><path d="M52 360L210 202" stroke-width="6" stroke="url(&quot;#SvgjsLinearGradient1040&quot;)" stroke-linecap="round" class="TopRight"></path><path d="M641 89L475 255" stroke-width="6" stroke="url(&quot;#SvgjsLinearGradient1039&quot;)" stroke-linecap="round" class="BottomLeft"></path><path d="M708 271L1037 -58" stroke-width="6" stroke="url(&quot;#SvgjsLinearGradient1039&quot;)" stroke-linecap="round" class="BottomLeft"></path><path d="M1404 368L1563 209" stroke-width="8" stroke="url(&quot;#SvgjsLinearGradient1040&quot;)" stroke-linecap="round" class="TopRight"></path><path d="M556 325L762 119" stroke-width="10" stroke="url(&quot;#SvgjsLinearGradient1040&quot;)" stroke-linecap="round" class="TopRight"></path><path d="M719 299L923 95" stroke-width="6" stroke="url(&quot;#SvgjsLinearGradient1039&quot;)" stroke-linecap="round" class="BottomLeft"></path><path d="M1315 474L1696 93" stroke-width="10" stroke="url(&quot;#SvgjsLinearGradient1039&quot;)" stroke-linecap="round" class="BottomLeft"></path><path d="M384 360L713 31" stroke-width="6" stroke="url(&quot;#SvgjsLinearGradient1039&quot;)" stroke-linecap="round" class="BottomLeft"></path><path d="M537 491L781 247" stroke-width="6" stroke="url(&quot;#SvgjsLinearGradient1040&quot;)" stroke-linecap="round" class="TopRight"></path><path d="M641 161L485 317" stroke-width="6" stroke="url(&quot;#SvgjsLinearGradient1040&quot;)" stroke-linecap="round" class="TopRight"></path><path d="M1426 129L1078 477" stroke-width="10" stroke="url(&quot;#SvgjsLinearGradient1039&quot;)" stroke-linecap="round" class="BottomLeft"></path><path d="M1289 159L1579 -131" stroke-width="6" stroke="url(&quot;#SvgjsLinearGradient1039&quot;)" stroke-linecap="round" class="BottomLeft"></path><path d="M504 381L717 168" stroke-width="6" stroke="url(&quot;#SvgjsLinearGradient1039&quot;)" stroke-linecap="round" class="BottomLeft"></path><path d="M338 112L728 -278" stroke-width="6" stroke="url(&quot;#SvgjsLinearGradient1040&quot;)" stroke-linecap="round" class="TopRight"></path><path d="M489 470L271 688" stroke-width="8" stroke="url(&quot;#SvgjsLinearGradient1040&quot;)" stroke-linecap="round" class="TopRight"></path><path d="M532 495L238 789" stroke-width="10" stroke="url(&quot;#SvgjsLinearGradient1040&quot;)" stroke-linecap="round" class="TopRight"></path><path d="M398 254L606 46" stroke-width="10" stroke="url(&quot;#SvgjsLinearGradient1040&quot;)" stroke-linecap="round" class="TopRight"></path><path d="M907 331L724 514" stroke-width="8" stroke="url(&quot;#SvgjsLinearGradient1039&quot;)" stroke-linecap="round" class="BottomLeft"></path><path d="M449 333L174 608" stroke-width="6" stroke="url(&quot;#SvgjsLinearGradient1040&quot;)" stroke-linecap="round" class="TopRight"></path></g><defs><mask id="SvgjsMask1038"><rect width="1440" height="560" fill="#ffffff"></rect></mask><linearGradient x1="100%" y1="0%" x2="0%" y2="100%" id="SvgjsLinearGradient1039"><stop stop-color="rgba(217, 227, 255, 0)" offset="0"></stop><stop stop-color="rgba(217, 227, 255, 1)" offset="1"></stop></linearGradient><linearGradient x1="0%" y1="100%" x2="100%" y2="0%" id="SvgjsLinearGradient1040"><stop stop-color="rgba(217, 227, 255, 0)" offset="0"></stop><stop stop-color="rgba(217, 227, 255, 1)" offset="1"></stop></linearGradient></defs></svg>