<svg xmlns="http://www.w3.org/2000/svg" version="1.1" xmlns:xlink="http://www.w3.org/1999/xlink" xmlns:svgjs="http://svgjs.dev/svgjs" width="1440" height="560" preserveAspectRatio="none" viewBox="0 0 1440 560"><g mask="url(&quot;#SvgjsMask1794&quot;)" fill="none"><rect width="1440" height="560" x="0" y="0" fill="url(&quot;#SvgjsLinearGradient1795&quot;)"></rect><path d="M584.99 668.19C689.35 642.17 654.72 360.05 884.14 358.99 1113.56 357.93 1330 476.03 1482.44 476.59" stroke="rgba(51,121,194,0.58)" stroke-width="2"></path><path d="M840.09 579.4C1000.87 516.99 1027.4 36.16 1254.34 27.72 1481.28 19.28 1555.82 203.13 1668.59 206.92" stroke="rgba(51,121,194,0.58)" stroke-width="2"></path><path d="M348.04 618.03C504.49 609.61 594.81 343.87 904.34 329.4 1213.87 314.93 1307.5 77.95 1460.64 71.8" stroke="rgba(51,121,194,0.58)" stroke-width="2"></path><path d="M716.73 578.41C853.24 513.86 790.89 77.24 1050.16 74.78 1309.44 72.32 1540.74 301.2 1717.03 304.38" stroke="rgba(51,121,194,0.58)" stroke-width="2"></path><path d="M533.02 607.77C641.86 585.55 584.59 319.04 858.07 304.83 1131.55 290.62 1338.44 110.95 1508.18 108.83" stroke="rgba(51,121,194,0.58)" stroke-width="2"></path></g><defs><mask id="SvgjsMask1794"><rect width="1440" height="560" fill="#ffffff"></rect></mask><linearGradient x1="15.28%" y1="-39.29%" x2="84.72%" y2="139.29%" gradientUnits="userSpaceOnUse" id="SvgjsLinearGradient1795"><stop stop-color="rgba(146, 173, 200, 1)" offset="0"></stop><stop stop-color="rgba(248, 249, 250, 1)" offset="1"></stop></linearGradient></defs></svg>